<?xml version="1.0" encoding="UTF-8" standalone="no"?>
<!-- Created with Inkscape (http://www.inkscape.org/) -->

<svg
   xmlns:dc="http://purl.org/dc/elements/1.1/"
   xmlns:cc="http://creativecommons.org/ns#"
   xmlns:rdf="http://www.w3.org/1999/02/22-rdf-syntax-ns#"
   xmlns:svg="http://www.w3.org/2000/svg"
   xmlns="http://www.w3.org/2000/svg"
   xmlns:sodipodi="http://sodipodi.sourceforge.net/DTD/sodipodi-0.dtd"
   xmlns:inkscape="http://www.inkscape.org/namespaces/inkscape"
   width="45"
   height="28"
   id="svg6664"
   version="1.1"
   inkscape:version="0.48.2 r9819"
   sodipodi:docname="meecalc-backspace.svg">
  <defs
     id="defs6666" />
  <sodipodi:namedview
     id="base"
     pagecolor="#ffffff"
     bordercolor="#666666"
     borderopacity="1.0"
     inkscape:pageopacity="0.0"
     inkscape:pageshadow="2"
     inkscape:zoom="19.79899"
     inkscape:cx="21.957929"
     inkscape:cy="15.792381"
     inkscape:current-layer="layer3"
     showgrid="true"
     inkscape:grid-bbox="true"
     inkscape:document-units="px"
     fit-margin-top="0"
     fit-margin-left="0"
     fit-margin-right="0"
     fit-margin-bottom="0"
     inkscape:window-width="1430"
     inkscape:window-height="1016"
     inkscape:window-x="1995"
     inkscape:window-y="75"
     inkscape:window-maximized="0">
    <inkscape:grid
       type="xygrid"
       id="grid6683"
       empspacing="8"
       visible="true"
       enabled="true"
       snapvisiblegridlinesonly="true" />
  </sodipodi:namedview>
  <metadata
     id="metadata6669">
    <rdf:RDF>
      <cc:Work
         rdf:about="">
        <dc:format>image/svg+xml</dc:format>
        <dc:type
           rdf:resource="http://purl.org/dc/dcmitype/StillImage" />
        <dc:title></dc:title>
      </cc:Work>
    </rdf:RDF>
  </metadata>
  <g
     inkscape:groupmode="layer"
     id="layer3"
     inkscape:label="Drawing"
     style="display:inline"
     transform="translate(-2.9374978,-10.062499)">
    <path
       style="fill:#ffffff;fill-opacity:1;stroke:#000000;stroke-width:0;stroke-linecap:butt;stroke-linejoin:miter;stroke-miterlimit:4;stroke-opacity:1;stroke-dasharray:none"
       d="m 16.968748,10.062499 c -1.02107,0 -2.03125,1 -2.03125,1 l -11.0000002,11 c -1,1 -1,2 -1,2 0,0 0,1 1,2 l 11.0000002,11 c 0,0 1,1 2,1 l 30,0 c 1,0 1,-1 1,-1 l 0,-26 c 0,0 0,-1 -1,-1 l -29.96875,0 z m 18.875,5.1875 c 0.379794,0.03453 0.65625,0.3125 0.65625,0.3125 l 1.4375,1.4375 c 0,0 0.681853,0.693147 0,1.375 l -5.6875,5.6875 5.625,5.59375 c 0.757617,0.757615 0.0625,1.46875 0.0625,1.46875 l -1.375,1.375 c 0,0 -0.761643,0.738357 -1.46875,0.03125 l -5.65625,-5.65625 -5.6875,5.6875 c -0.681853,0.681857 -1.375,-0.03125 -1.375,-0.03125 l -1.4375,-1.4375 c 0,0 -0.707107,-0.667893 0,-1.375 l 5.65625,-5.65625 -5.625,-5.625 c -0.732357,-0.73236 -0.03125,-1.4375 -0.03125,-1.4375 l 1.40625,-1.40625 c 0,0 0.730393,-0.738357 1.4375,-0.03125 l 5.65625,5.65625 5.65625,-5.65625 c 0.265165,-0.265165 0.522124,-0.333216 0.75,-0.3125 z"
       id="path6686"
       inkscape:connector-curvature="0" />
  </g>
</svg>
